<svg id="wave" style="transform:rotate(0deg); transition: 0.3s" viewBox="0 0 1440 490" version="1.1" xmlns="http://www.w3.org/2000/svg"><defs><linearGradient id="sw-gradient-0" x1="0" x2="0" y1="1" y2="0"><stop stop-color="rgba(48, 51, 57, 1)" offset="0%"></stop><stop stop-color="rgba(43, 79, 116, 1)" offset="100%"></stop></linearGradient></defs><path style="transform:translate(0, 0px); opacity:1" fill="url(#sw-gradient-0)" d="M0,294L48,285.8C96,278,192,261,288,236.8C384,212,480,180,576,171.5C672,163,768,180,864,196C960,212,1056,229,1152,212.3C1248,196,1344,147,1440,163.3C1536,180,1632,261,1728,310.3C1824,359,1920,376,2016,375.7C2112,376,2208,359,2304,343C2400,327,2496,310,2592,294C2688,278,2784,261,2880,245C2976,229,3072,212,3168,179.7C3264,147,3360,98,3456,122.5C3552,147,3648,245,3744,277.7C3840,310,3936,278,4032,294C4128,310,4224,376,4320,334.8C4416,294,4512,147,4608,130.7C4704,114,4800,229,4896,269.5C4992,310,5088,278,5184,285.8C5280,294,5376,343,5472,318.5C5568,294,5664,196,5760,171.5C5856,147,5952,196,6048,187.8C6144,180,6240,114,6336,130.7C6432,147,6528,245,6624,261.3C6720,278,6816,212,6864,179.7L6912,147L6912,490L6864,490C6816,490,6720,490,6624,490C6528,490,6432,490,6336,490C6240,490,6144,490,6048,490C5952,490,5856,490,5760,490C5664,490,5568,490,5472,490C5376,490,5280,490,5184,490C5088,490,4992,490,4896,490C4800,490,4704,490,4608,490C4512,490,4416,490,4320,490C4224,490,4128,490,4032,490C3936,490,3840,490,3744,490C3648,490,3552,490,3456,490C3360,490,3264,490,3168,490C3072,490,2976,490,2880,490C2784,490,2688,490,2592,490C2496,490,2400,490,2304,490C2208,490,2112,490,2016,490C1920,490,1824,490,1728,490C1632,490,1536,490,1440,490C1344,490,1248,490,1152,490C1056,490,960,490,864,490C768,490,672,490,576,490C480,490,384,490,288,490C192,490,96,490,48,490L0,490Z"></path></svg>