<svg id="wave" style="transform:rotate(180deg); transition: 0.3s" viewBox="0 0 1440 490" version="1.1" xmlns="http://www.w3.org/2000/svg"><defs><linearGradient id="sw-gradient-0" x1="0" x2="0" y1="1" y2="0"><stop stop-color="rgba(48, 51, 57, 1)" offset="0%"></stop><stop stop-color="rgba(43, 79, 116, 1)" offset="100%"></stop></linearGradient></defs><path style="transform:translate(0, 0px); opacity:1" fill="url(#sw-gradient-0)" d="M0,343L40,351.2C80,359,160,376,240,334.8C320,294,400,196,480,204.2C560,212,640,327,720,326.7C800,327,880,212,960,138.8C1040,65,1120,33,1200,73.5C1280,114,1360,229,1440,277.7C1520,327,1600,310,1680,253.2C1760,196,1840,98,1920,73.5C2000,49,2080,98,2160,130.7C2240,163,2320,180,2400,196C2480,212,2560,229,2640,204.2C2720,180,2800,114,2880,73.5C2960,33,3040,16,3120,40.8C3200,65,3280,131,3360,204.2C3440,278,3520,359,3600,392C3680,425,3760,408,3840,343C3920,278,4000,163,4080,106.2C4160,49,4240,49,4320,106.2C4400,163,4480,278,4560,343C4640,408,4720,425,4800,359.3C4880,294,4960,147,5040,114.3C5120,82,5200,163,5280,204.2C5360,245,5440,245,5520,245C5600,245,5680,245,5720,245L5760,245L5760,490L5720,490C5680,490,5600,490,5520,490C5440,490,5360,490,5280,490C5200,490,5120,490,5040,490C4960,490,4880,490,4800,490C4720,490,4640,490,4560,490C4480,490,4400,490,4320,490C4240,490,4160,490,4080,490C4000,490,3920,490,3840,490C3760,490,3680,490,3600,490C3520,490,3440,490,3360,490C3280,490,3200,490,3120,490C3040,490,2960,490,2880,490C2800,490,2720,490,2640,490C2560,490,2480,490,2400,490C2320,490,2240,490,2160,490C2080,490,2000,490,1920,490C1840,490,1760,490,1680,490C1600,490,1520,490,1440,490C1360,490,1280,490,1200,490C1120,490,1040,490,960,490C880,490,800,490,720,490C640,490,560,490,480,490C400,490,320,490,240,490C160,490,80,490,40,490L0,490Z"></path></svg>