<svg id="wave" style="transform:rotate(180deg); transition: 0.3s" viewBox="0 0 1440 330" version="1.1" xmlns="http://www.w3.org/2000/svg"><defs><linearGradient id="sw-gradient-0" x1="0" x2="0" y1="1" y2="0"><stop stop-color="rgba(48, 51, 57, 1)" offset="0%"></stop><stop stop-color="rgba(41.968, 79.92, 118.82, 1)" offset="100%"></stop></linearGradient></defs><path style="transform:translate(0, 0px); opacity:1" fill="url(#sw-gradient-0)" d="M0,231L40,198C80,165,160,99,240,77C320,55,400,77,480,99C560,121,640,143,720,176C800,209,880,253,960,242C1040,231,1120,165,1200,126.5C1280,88,1360,77,1440,77C1520,77,1600,88,1680,82.5C1760,77,1840,55,1920,60.5C2000,66,2080,99,2160,104.5C2240,110,2320,88,2400,77C2480,66,2560,66,2640,82.5C2720,99,2800,132,2880,137.5C2960,143,3040,121,3120,115.5C3200,110,3280,121,3360,132C3440,143,3520,154,3600,143C3680,132,3760,99,3840,77C3920,55,4000,44,4080,82.5C4160,121,4240,209,4320,247.5C4400,286,4480,275,4560,242C4640,209,4720,154,4800,148.5C4880,143,4960,187,5040,181.5C5120,176,5200,121,5280,104.5C5360,88,5440,110,5520,143C5600,176,5680,220,5720,242L5760,264L5760,330L5720,330C5680,330,5600,330,5520,330C5440,330,5360,330,5280,330C5200,330,5120,330,5040,330C4960,330,4880,330,4800,330C4720,330,4640,330,4560,330C4480,330,4400,330,4320,330C4240,330,4160,330,4080,330C4000,330,3920,330,3840,330C3760,330,3680,330,3600,330C3520,330,3440,330,3360,330C3280,330,3200,330,3120,330C3040,330,2960,330,2880,330C2800,330,2720,330,2640,330C2560,330,2480,330,2400,330C2320,330,2240,330,2160,330C2080,330,2000,330,1920,330C1840,330,1760,330,1680,330C1600,330,1520,330,1440,330C1360,330,1280,330,1200,330C1120,330,1040,330,960,330C880,330,800,330,720,330C640,330,560,330,480,330C400,330,320,330,240,330C160,330,80,330,40,330L0,330Z"></path></svg>